<?xml version="1.0" standalone="no"?>
<!DOCTYPE svg PUBLIC "-//W3C//DTD SVG 20010904//EN"
 "http://www.w3.org/TR/2001/REC-SVG-20010904/DTD/svg10.dtd">
<svg version="1.0" xmlns="http://www.w3.org/2000/svg"
 width="274.000000pt" height="272.000000pt" viewBox="0 0 274.000000 272.000000"
 preserveAspectRatio="xMidYMid meet">

<g transform="translate(0.000000,272.000000) scale(0.100000,-0.100000)"
fill="#000000" stroke="none">
<path d="M1750 1866 c0 -11 102 -42 127 -37 21 3 4 27 -27 38 -49 17 -100 16
-100 -1z"/>
<path d="M736 1840 c-58 -23 -74 -36 -60 -50 12 -12 129 34 129 51 0 20 -17
19 -69 -1z"/>
<path d="M693 1594 c-9 -25 21 -46 74 -51 55 -6 102 20 90 50 -9 24 -155 25
-164 1z"/>
<path d="M1781 1601 c-25 -3 -46 -11 -48 -18 -6 -18 83 -55 117 -48 35 8 68
41 53 56 -13 13 -69 18 -122 10z"/>
<path d="M1239 1544 c-82 -25 -189 -140 -189 -203 0 -11 9 -25 19 -31 23 -12
290 -15 405 -4 74 7 76 7 76 34 0 14 -7 49 -15 78 -34 113 -162 168 -296 126z
m186 -53 c17 -9 30 -21 29 -27 -1 -5 -23 -14 -50 -20 -66 -16 -98 -29 -165
-70 -55 -33 -130 -47 -143 -26 -3 5 10 31 28 58 67 99 207 139 301 85z m81
-107 c4 -14 3 -29 -2 -33 -5 -5 -60 -11 -123 -14 -132 -7 -135 3 -16 46 95 35
133 35 141 1z"/>
</g>
</svg>
