<?xml version="1.0" standalone="no"?>
<!DOCTYPE svg PUBLIC "-//W3C//DTD SVG 20010904//EN"
 "http://www.w3.org/TR/2001/REC-SVG-20010904/DTD/svg10.dtd">
<svg version="1.0" xmlns="http://www.w3.org/2000/svg"
 width="264.000000pt" height="273.000000pt" viewBox="0 0 264.000000 273.000000"
 preserveAspectRatio="xMidYMid meet">

<g transform="translate(0.000000,273.000000) scale(0.100000,-0.100000)"
fill="#000000" stroke="none">
<path d="M706 1612 c-3 -5 13 -33 34 -63 22 -30 39 -58 40 -64 0 -5 -23 -29
-50 -53 -28 -24 -50 -47 -50 -53 0 -20 34 -7 81 33 l50 42 43 -50 c35 -38 47
-46 56 -37 10 9 4 22 -29 60 l-42 48 56 52 c49 46 63 73 35 73 -4 0 -31 -21
-60 -47 l-53 -47 -24 29 c-13 17 -31 42 -41 58 -16 27 -36 35 -46 19z"/>
<path d="M1945 1554 l-49 -44 -41 40 c-22 22 -46 40 -53 40 -22 0 -12 -26 23
-60 19 -19 35 -39 35 -44 0 -6 -23 -30 -50 -54 -49 -42 -64 -72 -36 -72 7 0
19 7 26 15 7 9 30 29 52 46 l38 31 46 -41 c46 -40 74 -52 74 -31 0 6 -21 31
-47 55 l-48 45 48 41 c44 38 57 62 40 72 -5 3 -30 -15 -58 -39z"/>
<path d="M1313 1493 c-126 -3 -133 -5 -133 -24 0 -18 5 -20 41 -18 l42 3 17
-69 c25 -101 76 -138 135 -99 28 18 53 77 57 133 3 40 4 41 40 41 46 0 68 8
68 26 0 11 -15 14 -67 12 -38 -1 -128 -4 -200 -5z m123 -75 c-9 -55 -37 -103
-60 -103 -26 0 -54 42 -62 93 -6 38 -5 42 15 42 15 0 21 -6 21 -22 0 -13 4
-29 9 -37 12 -19 41 -6 39 16 -3 40 2 53 23 53 20 0 21 -4 15 -42z"/>
</g>
</svg>
