<?xml version="1.0" standalone="no"?>
<!DOCTYPE svg PUBLIC "-//W3C//DTD SVG 20010904//EN"
 "http://www.w3.org/TR/2001/REC-SVG-20010904/DTD/svg10.dtd">
<svg version="1.0" xmlns="http://www.w3.org/2000/svg"
 width="292.000000pt" height="234.000000pt" viewBox="0 0 292.000000 234.000000"
 preserveAspectRatio="xMidYMid meet">

<g transform="translate(0.000000,234.000000) scale(0.100000,-0.100000)"
fill="#000000" stroke="none">
<path d="M1954 1639 c-11 -18 8 -26 74 -32 54 -4 63 -3 60 11 -5 27 -119 45
-134 21z"/>
<path d="M884 1626 c-35 -16 -49 -32 -35 -40 15 -10 121 27 121 41 0 17 -46
16 -86 -1z"/>
<path d="M1960 1539 c-68 -13 -180 -73 -227 -121 -56 -58 -111 -151 -118 -203
-10 -66 -12 -67 -120 -69 l-97 -1 -4 49 c-13 168 -204 312 -440 332 -218 18
-375 -102 -431 -329 -29 -122 6 -235 106 -337 96 -97 224 -143 344 -122 185
31 343 152 397 303 17 50 21 55 57 61 21 4 68 7 105 7 66 1 68 0 74 -26 16
-75 39 -128 78 -180 77 -105 178 -155 312 -155 158 0 277 49 357 148 59 72 84
128 99 215 21 120 -15 240 -95 319 -97 96 -249 138 -397 109z m234 -49 c72
-24 132 -68 169 -122 117 -174 43 -445 -146 -538 -171 -84 -379 -57 -483 63
-65 74 -89 139 -89 237 0 72 4 93 28 141 51 104 139 186 240 220 73 26 206 25
281 -1z m-1110 -28 c139 -45 236 -125 267 -219 17 -52 6 -151 -24 -214 -73
-158 -258 -268 -431 -257 -227 15 -392 234 -332 441 22 74 78 170 119 201 118
88 236 102 401 48z"/>
<path d="M2009 1153 c-34 -54 -72 -57 -100 -9 -22 37 -39 39 -39 5 0 -30 53
-79 85 -79 36 0 95 59 95 94 0 36 -12 33 -41 -11z"/>
<path d="M950 1152 c0 -25 51 -81 75 -83 42 -3 57 2 80 27 28 30 34 74 9 74
-8 0 -20 -14 -26 -30 -18 -54 -85 -47 -103 11 -8 24 -35 25 -35 1z"/>
<path d="M1440 847 c-47 -31 -75 -80 -60 -106 21 -41 97 -40 118 1 13 27 15
39 13 91 -1 45 -21 49 -71 14z m28 -64 c-2 -20 -9 -29 -25 -31 -27 -4 -30 14
-6 40 23 26 35 22 31 -9z"/>
</g>
</svg>
