<?xml version="1.0" standalone="no"?>
<!DOCTYPE svg PUBLIC "-//W3C//DTD SVG 20010904//EN"
 "http://www.w3.org/TR/2001/REC-SVG-20010904/DTD/svg10.dtd">
<svg version="1.0" xmlns="http://www.w3.org/2000/svg"
 width="243.000000pt" height="250.000000pt" viewBox="0 0 243.000000 250.000000"
 preserveAspectRatio="xMidYMid meet">

<g transform="translate(0.000000,250.000000) scale(0.100000,-0.100000)"
fill="#000000" stroke="none">
<path d="M1645 1749 c-10 -15 -7 -16 63 -22 47 -4 62 -2 62 8 0 23 -112 36
-125 14z"/>
<path d="M602 1730 c-38 -9 -57 -24 -48 -38 3 -6 25 -4 56 4 60 15 72 22 65
35 -7 10 -26 10 -73 -1z"/>
<path d="M1656 1529 c-46 -54 -26 -122 40 -135 24 -4 37 0 62 21 44 37 44 83
1 119 -41 35 -71 33 -103 -5z"/>
<path d="M613 1533 c-31 -6 -63 -49 -63 -85 0 -32 39 -78 65 -78 25 0 73 28
85 49 17 33 11 61 -19 92 -16 16 -33 28 -38 28 -4 -1 -18 -4 -30 -6z"/>
<path d="M1100 1484 c-30 -28 -45 -52 -60 -101 -11 -36 -20 -75 -20 -87 0 -12
-6 -28 -12 -34 -10 -10 -10 -15 1 -21 8 -5 21 -7 30 -4 9 3 22 7 30 9 11 3 11
7 1 19 -20 24 -5 112 28 164 46 75 113 81 159 13 26 -40 41 -137 24 -164 -18
-29 -13 -38 24 -38 24 0 35 5 35 15 0 8 -4 15 -9 15 -4 0 -10 30 -13 68 -9
117 -57 182 -138 182 -32 0 -48 -7 -80 -36z"/>
</g>
</svg>
