<?xml version="1.0" standalone="no"?>
<!DOCTYPE svg PUBLIC "-//W3C//DTD SVG 20010904//EN"
 "http://www.w3.org/TR/2001/REC-SVG-20010904/DTD/svg10.dtd">
<svg version="1.0" xmlns="http://www.w3.org/2000/svg"
 width="237.000000pt" height="246.000000pt" viewBox="0 0 237.000000 246.000000"
 preserveAspectRatio="xMidYMid meet">

<g transform="translate(0.000000,246.000000) scale(0.100000,-0.100000)"
fill="#000000" stroke="none">
<path d="M1750 1601 c0 -28 109 -61 139 -42 22 14 5 28 -41 34 -24 4 -55 9
-70 13 -18 4 -28 2 -28 -5z"/>
<path d="M330 1561 c-53 -9 -47 -37 7 -34 44 2 83 17 83 33 0 11 -34 11 -90 1z"/>
<path d="M1744 1372 c-45 -30 -38 -97 12 -118 45 -19 51 -18 79 11 32 31 33
78 3 99 -23 17 -75 21 -94 8z"/>
<path d="M383 1348 c-12 -6 -27 -24 -34 -41 -10 -24 -10 -34 2 -56 21 -37 86
-42 116 -9 35 38 38 64 9 93 -26 26 -57 31 -93 13z"/>
<path d="M1170 1245 c-68 -43 -98 -44 -152 -5 -54 39 -117 42 -153 5 -21 -21
-25 -33 -25 -88 0 -74 16 -118 59 -165 95 -102 264 -94 364 18 50 54 67 96 67
163 0 109 -61 136 -160 72z m108 -17 c20 -20 14 -91 -11 -139 -23 -43 -24 -44
-70 -41 -53 4 -87 -21 -87 -63 0 -22 -4 -25 -37 -25 -73 1 -158 58 -182 123
-14 35 -14 62 0 110 13 49 41 49 120 1 70 -43 98 -42 174 11 54 37 74 42 93
23z m-78 -227 c0 -9 -24 -21 -42 -21 -6 0 -6 6 2 15 14 16 40 20 40 6z"/>
<path d="M1685 1221 c-6 -10 17 -36 43 -50 31 -15 82 -21 108 -11 41 16 23 33
-33 34 -34 1 -58 7 -70 19 -22 19 -39 22 -48 8z"/>
<path d="M464 1186 c-11 -8 -38 -16 -60 -18 -27 -2 -39 -8 -39 -18 0 -11 11
-15 48 -13 50 1 101 26 94 46 -5 17 -21 18 -43 3z"/>
</g>
</svg>
