<?xml version="1.0" standalone="no"?>
<!DOCTYPE svg PUBLIC "-//W3C//DTD SVG 20010904//EN"
 "http://www.w3.org/TR/2001/REC-SVG-20010904/DTD/svg10.dtd">
<svg version="1.0" xmlns="http://www.w3.org/2000/svg"
 width="280.000000pt" height="212.000000pt" viewBox="0 0 280.000000 212.000000"
 preserveAspectRatio="xMidYMid meet">

<g transform="translate(0.000000,212.000000) scale(0.100000,-0.100000)"
fill="#000000" stroke="none">
<path d="M1770 1586 c0 -8 16 -16 43 -20 23 -4 52 -9 65 -13 17 -4 22 -1 22
15 0 14 -9 21 -31 26 -54 11 -99 7 -99 -8z"/>
<path d="M799 1541 c-43 -14 -69 -31 -69 -46 0 -17 22 -19 48 -5 9 5 34 16 55
25 60 23 31 45 -34 26z"/>
<path d="M1814 1324 c-17 -8 -36 -26 -42 -39 -17 -36 4 -42 37 -11 34 33 61
33 91 1 24 -25 40 -25 40 1 0 22 -49 64 -74 64 -12 0 -35 -7 -52 -16z"/>
<path d="M798 1305 c-24 -14 -48 -43 -48 -59 0 -15 37 -4 48 14 7 12 23 20 41
20 15 0 36 -9 46 -20 21 -23 45 -26 45 -7 0 21 -43 56 -75 62 -18 3 -42 -1
-57 -10z"/>
<path d="M1226 1262 c-11 -18 24 -111 51 -131 31 -25 84 -27 118 -5 33 21 65
75 65 108 0 35 -26 34 -35 -1 -29 -121 -144 -113 -167 11 -3 21 -23 32 -32 18z"/>
</g>
</svg>
