<?xml version="1.0" standalone="no"?>
<!DOCTYPE svg PUBLIC "-//W3C//DTD SVG 20010904//EN"
 "http://www.w3.org/TR/2001/REC-SVG-20010904/DTD/svg10.dtd">
<svg version="1.0" xmlns="http://www.w3.org/2000/svg"
 width="246.000000pt" height="247.000000pt" viewBox="0 0 246.000000 247.000000"
 preserveAspectRatio="xMidYMid meet">

<g transform="translate(0.000000,247.000000) scale(0.100000,-0.100000)"
fill="#000000" stroke="none">
<path d="M580 1458 c0 -7 32 -26 71 -42 39 -15 68 -30 66 -32 -2 -2 -27 -8
-57 -14 -29 -6 -59 -15 -67 -22 -28 -23 4 -27 87 -10 139 28 142 38 26 93 -86
40 -126 49 -126 27z"/>
<path d="M1725 1443 c-124 -31 -161 -73 -82 -93 23 -6 68 -19 100 -29 36 -11
60 -14 64 -8 8 14 -24 35 -72 48 -74 21 -72 19 -55 29 8 4 41 13 73 20 35 8
57 18 57 27 0 13 -43 16 -85 6z"/>
<path d="M1133 1394 c-52 -26 -101 -151 -56 -142 10 2 20 16 23 33 15 70 55
100 106 76 29 -13 64 -67 64 -98 0 -15 6 -23 16 -23 14 0 16 7 11 40 -12 93
-93 149 -164 114z"/>
<path d="M588 1203 c-48 -55 -62 -137 -30 -166 43 -39 84 -4 84 73 0 49 -17
110 -32 110 -4 0 -14 -8 -22 -17z m20 -95 c-3 -42 -23 -62 -34 -34 -7 19 14
76 28 76 5 0 8 -19 6 -42z"/>
</g>
</svg>
