<?xml version="1.0" standalone="no"?>
<!DOCTYPE svg PUBLIC "-//W3C//DTD SVG 20010904//EN"
 "http://www.w3.org/TR/2001/REC-SVG-20010904/DTD/svg10.dtd">
<svg version="1.0" xmlns="http://www.w3.org/2000/svg"
 width="252.000000pt" height="259.000000pt" viewBox="0 0 252.000000 259.000000"
 preserveAspectRatio="xMidYMid meet">

<g transform="translate(0.000000,259.000000) scale(0.100000,-0.100000)"
fill="#000000" stroke="none">
<path d="M1680 1919 c0 -12 101 -59 113 -52 19 11 3 32 -36 47 -49 18 -77 21
-77 5z"/>
<path d="M701 1887 c-25 -12 -46 -28 -49 -34 -6 -22 38 -15 85 12 75 45 45 62
-36 22z"/>
<path d="M680 1631 c-79 -24 -128 -73 -151 -149 -25 -84 21 -181 103 -220 166
-78 348 18 348 182 0 116 -174 225 -300 187z m140 -71 c0 -13 -7 -20 -20 -20
-13 0 -20 7 -20 20 0 13 7 20 20 20 13 0 20 -7 20 -20z m-62 -22 c19 -19 14
-55 -10 -72 -30 -21 -44 -20 -68 4 -19 19 -18 40 3 68 12 15 59 16 75 0z m100
-45 c13 -26 4 -43 -24 -43 -26 0 -40 20 -30 45 8 21 43 19 54 -2z"/>
<path d="M1690 1598 c-61 -33 -102 -96 -108 -164 -6 -70 2 -96 41 -140 116
-133 358 -75 387 94 21 123 -67 220 -210 229 -55 4 -72 1 -110 -19z m142 -45
c26 -23 23 -59 -7 -79 -45 -29 -95 9 -76 59 15 39 52 48 83 20z m76 -6 c2 -12
-3 -17 -17 -17 -15 0 -21 6 -21 21 0 25 33 22 38 -4z m17 -77 c0 -18 -6 -26
-23 -28 -24 -4 -38 18 -28 44 3 9 15 14 28 12 17 -2 23 -10 23 -28z"/>
<path d="M1225 1310 c-35 -68 -92 -73 -113 -10 -11 30 -26 38 -37 20 -9 -15
21 -77 43 -89 36 -19 72 -13 103 18 l29 30 26 -26 c21 -21 32 -24 62 -20 41 7
82 46 82 78 0 28 -15 24 -40 -11 -31 -44 -75 -42 -97 5 -20 43 -38 44 -58 5z"/>
<path d="M278 1268 c-16 -5 -28 -17 -28 -25 0 -12 7 -14 32 -9 38 7 53 20 44
35 -8 13 -12 13 -48 -1z"/>
<path d="M2156 1271 c-8 -12 13 -27 47 -35 22 -5 27 -3 27 13 0 25 -61 43 -74
22z"/>
<path d="M2107 1203 c-14 -13 -6 -24 28 -39 44 -18 55 -18 55 1 0 8 -16 22
-36 30 -42 17 -39 17 -47 8z"/>
<path d="M333 1183 c-18 -7 -16 -33 3 -33 21 0 54 18 54 30 0 10 -36 12 -57 3z"/>
</g>
</svg>
